<svg width="40" height="40" viewBox="0 0 40 40" fill="none" xmlns="http://www.w3.org/2000/svg">
<path d="M19.5565 26.1048C19.8905 26.3498 20.3599 26.2775 20.6048 25.9435C20.8498 25.6095 20.7775 25.1401 20.4435 24.8952L19.5565 26.1048ZM20.4435 15.1048C20.7775 14.8599 20.8498 14.3905 20.6048 14.0565C20.3599 13.7225 19.8905 13.6502 19.5565 13.8952L20.4435 15.1048ZM12.5 20L12.0565 19.3952C11.8638 19.5365 11.75 19.7611 11.75 20C11.75 20.2389 11.8638 20.4635 12.0565 20.6048L12.5 20ZM20.4435 24.8952L12.9435 19.3952L12.0565 20.6048L19.5565 26.1048L20.4435 24.8952ZM12.9435 20.6048L20.4435 15.1048L19.5565 13.8952L12.0565 19.3952L12.9435 20.6048Z" fill="black"/>
<path d="M28.5 20H14.5" stroke="black" stroke-width="1.5" stroke-linecap="round"/>
<rect x="0.5" y="0.5" width="39" height="39" rx="19.5" stroke="black"/>
</svg>
