<svg width="720" height="351" viewBox="0 0 720 351" fill="none" xmlns="http://www.w3.org/2000/svg">
<mask id="mask0_148_3163" style="mask-type:alpha" maskUnits="userSpaceOnUse" x="8" y="6" width="352" height="339">
<path d="M8.99957 175.454L173.14 11.3137C179.389 5.06531 189.519 5.06531 195.768 11.3137L359.908 175.454L195.768 339.595C189.519 345.843 179.389 345.843 173.14 339.595L8.99957 175.454Z" fill="white"/>
</mask>
<g mask="url(#mask0_148_3163)">
<path d="M8.99957 175.454L184.454 -1.45068e-05V43.8636V87.7272V175.454V350.909L8.99957 175.454Z" fill="#EFE8E4"/>
</g>
<mask id="mask1_148_3163" style="mask-type:alpha" maskUnits="userSpaceOnUse" x="359" y="6" width="352" height="339">
<path d="M359.483 175.454L523.624 11.3137C529.872 5.06531 540.003 5.06531 546.251 11.3137L710.392 175.454L546.251 339.595C540.003 345.843 529.872 345.843 523.624 339.595L359.483 175.454Z" fill="white"/>
</mask>
<g mask="url(#mask1_148_3163)">
<path d="M359.483 175.454L534.937 -1.45068e-05V43.8636V87.7272V175.454V350.909L359.483 175.454Z" fill="#EFE8E4"/>
</g>
<path fill-rule="evenodd" clip-rule="evenodd" d="M10.4138 175.454L173.847 12.0208C179.705 6.16295 189.203 6.16295 195.061 12.0208L358.494 175.454L195.061 338.888C189.203 344.746 179.705 344.746 173.847 338.888L10.4138 175.454ZM8.99957 175.454L9.70668 174.747L173.14 11.3137C179.389 5.06531 189.519 5.06532 195.768 11.3137L359.201 174.747L359.908 175.454L359.201 176.161L195.768 339.595C189.519 345.843 179.389 345.843 173.14 339.595L9.70668 176.161L8.99957 175.454ZM361.328 175.454L524.761 12.0208C530.619 6.16295 540.116 6.16295 545.974 12.0208L709.408 175.454L545.974 338.888C540.116 344.746 530.619 344.746 524.761 338.888L361.328 175.454ZM359.913 175.454L360.62 174.747L524.054 11.3137C530.302 5.06531 540.433 5.06532 546.681 11.3137L710.115 174.747L710.822 175.454L710.115 176.161L546.681 339.595C540.433 345.843 530.302 345.843 524.054 339.595L360.62 176.161L359.913 175.454Z" fill="#181514"/>
<path fill-rule="evenodd" clip-rule="evenodd" d="M17.1703 174.89C17.1703 179.355 13.5505 182.975 9.08517 182.975C4.61986 182.975 1 179.355 1 174.89C1 170.424 4.61986 166.804 9.08517 166.804C13.5505 166.804 17.1703 170.424 17.1703 174.89ZM18.1703 174.89C18.1703 179.907 14.1028 183.975 9.08517 183.975C4.06757 183.975 0 179.907 0 174.89C0 169.872 4.06757 165.804 9.08517 165.804C14.1028 165.804 18.1703 169.872 18.1703 174.89ZM360 182.975C364.465 182.975 368.085 179.355 368.085 174.89C368.085 170.424 364.465 166.804 360 166.804C355.535 166.804 351.915 170.424 351.915 174.89C351.915 179.355 355.535 182.975 360 182.975ZM360 183.975C365.018 183.975 369.085 179.907 369.085 174.89C369.085 169.872 365.018 165.804 360 165.804C354.982 165.804 350.915 169.872 350.915 174.89C350.915 179.907 354.982 183.975 360 183.975ZM710.915 182.975C715.38 182.975 719 179.355 719 174.89C719 170.424 715.38 166.804 710.915 166.804C706.449 166.804 702.83 170.424 702.83 174.89C702.83 179.355 706.449 182.975 710.915 182.975ZM710.915 183.975C715.932 183.975 720 179.907 720 174.89C720 169.872 715.932 165.804 710.915 165.804C705.897 165.804 701.83 169.872 701.83 174.89C701.83 179.907 705.897 183.975 710.915 183.975Z" fill="#181514"/>
</svg>
